<?xml version="1.0" ?><svg data-name="Filled Outline" id="Filled_Outline" viewBox="0 0 128 128" xmlns="http://www.w3.org/2000/svg"><title/><circle cx="65.5" cy="64.308" r="60.873" style="fill:#2c80db"/><circle cx="65.5" cy="64.308" r="51.518" style="fill:#ffe3de"/><path d="M54.463,49.624v.328h6.219c2.291,0,3.6,1.309,3.6,3.273,0,1.931-1.309,3.273-3.6,3.273H48.571a3.715,3.715,0,0,1-3.927-3.6c0-8.182,12.11-8.837,12.11-11.946,0-.982-.818-1.8-2.619-1.8-2.454,0-2.781,2.292-5.4,2.292-2.455,0-3.6-1.113-3.6-2.913,0-2.619,3.273-5.6,9-5.6,6.547,0,10.147,3.6,10.147,8.019C64.282,46.679,58.063,47.333,54.463,49.624Z" style="fill:#332c44"/><path d="M66.248,41.933c0-5.074,3.927-9,10.146-9s10.147,3.927,10.147,9v6.218c0,5.074-3.928,9-10.147,9s-10.146-3.927-10.146-9Zm12.928,0c0-2.128-1.309-3.437-2.782-3.437s-2.782,1.309-2.782,3.437v6.218c0,2.128,1.309,3.437,2.782,3.437s2.782-1.309,2.782-3.437Z" style="fill:#332c44"/><path d="M51.579,78.332c0-1.958,1.506-3.465,4.518-3.465,2.636,0,4.142,1.507,4.142,2.561,0,.828-.527,1.355-1.656,1.355-1.206,0-1.356-1.054-2.486-1.054-.753,0-1.054.3-1.054.6,0,1.054,5.573.6,5.573,4.065,0,1.958-1.657,3.615-4.97,3.615-2.787,0-4.292-1.506-4.292-2.56,0-.828.526-1.355,1.656-1.355,1.205,0,1.355,1.054,2.636,1.054,1.129,0,1.505-.377,1.505-.754C57.151,81.494,51.579,81.946,51.579,78.332Z" style="fill:#332c44"/><path d="M65.136,78.181v.9H68A1.363,1.363,0,1,1,68,81.8H65.136v.9h4.218a1.513,1.513,0,1,1,0,3.012H63.48a1.469,1.469,0,0,1-1.657-1.506v-7.53a1.469,1.469,0,0,1,1.657-1.507H69.2a1.513,1.513,0,1,1,0,3.013Z" style="fill:#332c44"/><path d="M71.766,79.386c0-2.561,1.958-4.519,5.045-4.519,2.636,0,4.142,1.507,4.142,2.561,0,.828-.527,1.355-1.657,1.355-1.205,0-1.355-1.054-2.485-1.054a1.581,1.581,0,0,0-1.656,1.657v2.108a1.581,1.581,0,0,0,1.656,1.657c1.28,0,1.431-1.054,2.636-1.054,1.129,0,1.657.527,1.657,1.355,0,1.054-1.506,2.56-4.293,2.56-3.087,0-5.045-1.958-5.045-4.518Z" style="fill:#332c44"/><path d="M65.5,66.118a1.5,1.5,0,0,1-.517-2.909L113.451,45.4a1.5,1.5,0,1,1,1.034,2.816L66.017,66.025A1.486,1.486,0,0,1,65.5,66.118Z" style="fill:#332c44"/><path d="M65.5,66.118a1.5,1.5,0,0,1-.416-.059l-28.166-8.12a1.5,1.5,0,1,1,.831-2.883l28.167,8.12a1.5,1.5,0,0,1-.416,2.942Z" style="fill:#332c44"/><circle cx="65.5" cy="64.617" r="3.999" style="fill:#332c44"/><path d="M65.5,117.019A53.019,53.019,0,1,1,118.519,64,53.08,53.08,0,0,1,65.5,117.019Zm0-103.038A50.019,50.019,0,1,0,115.519,64,50.076,50.076,0,0,0,65.5,13.981Z" style="fill:#332c44"/><path d="M65.5,126.373A62.373,62.373,0,1,1,127.873,64,62.443,62.443,0,0,1,65.5,126.373Zm0-121.746A59.373,59.373,0,1,0,124.873,64,59.441,59.441,0,0,0,65.5,4.627Z" style="fill:#332c44"/></svg>