<?xml version="1.0" ?><svg data-name="Filled Outline" id="Filled_Outline" viewBox="0 0 128 128" xmlns="http://www.w3.org/2000/svg"><title/><path d="M64,2.07c-7.113,0-15.8,3-18.523,8.2-12.813,3.264-19.546,20.455-15.564,41.6l1.914,12.458C37.523,82.38,46.192,84.578,45.654,90.1c-.362,3.7,4.639,3.436,7.834,3.11H74.511c3.2.326,8.2.588,7.835-3.111-.538-5.52,8.131-7.718,13.827-25.766l2.849-11.456C104.867,21.122,84.7,2.07,64,2.07Z" style="fill:#3d60ac"/><path d="M98.99,111.836c-2.06-3.29-7.98-10.36-18.46-15.25-3.34-1.56-7.14-2.86-8.62-7.38a14.335,14.335,0,0,1-.64-4.52H56.73a14.335,14.335,0,0,1-.64,4.52c-1.48,4.52-5.28,5.82-8.62,7.38-10.48,4.89-16.4,11.96-18.46,15.25-2.41,3.84-.18,5.92,3.27,7.82,3.55,1.96,14.37,6.07,31.72,6.07s28.17-4.11,31.72-6.07C99.17,117.756,101.4,115.676,98.99,111.836Z" style="fill:#f97d8c"/><path d="M98.99,111.836c-2.02-3.22-7.73-10.06-17.8-14.93-.22-.11-.44-.22-.66-.32-1.35-.63-2.78-1.22-4.1-2A17.788,17.788,0,0,1,64,99.206a17.788,17.788,0,0,1-12.43-4.62c-1.32.78-2.75,1.37-4.1,2-.22.1-.44.21-.66.32-10.07,4.87-15.78,11.71-17.8,14.93-2.41,3.84-.18,5.92,3.27,7.82,3.55,1.96,14.37,6.07,31.72,6.07s28.17-4.11,31.72-6.07C99.17,117.756,101.4,115.676,98.99,111.836Z" style="fill:#f7a34f"/><path d="M71.27,84.686H56.73a14.335,14.335,0,0,1-.64,4.52c3.02,1.58,5.99,2.72,7.91,2.72s4.89-1.14,7.91-2.72A14.335,14.335,0,0,1,71.27,84.686Z" style="fill:#f65e7b"/><path d="M74.75,105.026a4.787,4.787,0,0,1-6.28.01c-.66-.58-1.35-1.22-1.99-1.87a3.454,3.454,0,0,0-4.96,0c-.64.65-1.33,1.29-1.99,1.87a4.787,4.787,0,0,1-6.28-.01c-2.451-2.151-5.573-5.313-6.441-8.124,1.536-.756,3.223-1.407,4.761-2.316A17.788,17.788,0,0,0,64,99.206a17.788,17.788,0,0,0,12.43-4.62c1.538.909,3.225,1.56,4.761,2.316C80.323,99.713,77.2,102.875,74.75,105.026Z" style="fill:#ffe3de"/><path d="M31.257,51c-3.178,1.547-4.265,5.01-2.938,9.082,1.315,4.049,6.771,6.807,10.779,5.373L36.832,51.074C35.51,50.1,32.664,50.318,31.257,51Z" style="fill:#f97d8c"/><path d="M96.743,51c-1.407-.685-4.253-.9-5.575.071L88.9,65.458c4.008,1.434,9.464-1.324,10.779-5.373C101.008,56.013,99.921,52.55,96.743,51Z" style="fill:#f97d8c"/><path d="M79.663,21.423H48.337c-.889.321-12.65,14.65-11.505,29.651,1.1,16.529,5.36,24.452,11.978,29.586,4.409,3.308,11.609,7.271,15.19,7.271s10.781-3.963,15.19-7.271C85.808,75.526,90.067,67.6,91.168,51.074,92.313,36.073,80.552,21.744,79.663,21.423Z" style="fill:#ff9ea7"/><path d="M60.07,68.77a1.006,1.006,0,0,0-.974,1.252,5.054,5.054,0,0,0,9.792,0,1.007,1.007,0,0,0-.974-1.252Z" style="fill:#fff"/><path d="M65.436,60.455a1.5,1.5,0,0,0-1.071.449,1.46,1.46,0,0,1-.731,0,1.5,1.5,0,0,0-2.57,1.052c0,1.588,1.924,2.007,2.941,2.007s2.931-.419,2.931-2.007A1.5,1.5,0,0,0,65.436,60.455Z" style="fill:#332c44"/><rect height="6.616" rx="2.732" ry="2.732" style="fill:#332c44" transform="translate(101.872 105.751) rotate(180)" width="5.463" x="48.204" y="49.568"/><path d="M40.476,45.572a1.573,1.573,0,0,1,.53-1.955c5.4-4.075,12.451-2.051,16.072-.688a1.5,1.5,0,0,1,.865,1.974h0a1.5,1.5,0,0,1-1.924.834c-3.159-1.183-9.113-2.89-13.289.338a1.5,1.5,0,0,1-2.254-.5Z" style="fill:#332c44"/><path d="M53.8,51.977a3.584,3.584,0,0,0-1.547-1.06,5.717,5.717,0,0,0-2.118-.3,8.144,8.144,0,0,0-2.3.406l-.551.208c-.178.079-.345.175-.533.239a2.288,2.288,0,0,1-.585.17,2.583,2.583,0,0,1-.729.056l-.243-.016a1.039,1.039,0,0,1-.942-1.255,2.589,2.589,0,0,1,.974-1.481,9.1,9.1,0,0,1,1.479-.812,9.712,9.712,0,0,1,3.267-.792,7.894,7.894,0,0,1,3.49.55A5.715,5.715,0,0,1,56.3,50.358a1.494,1.494,0,0,1-2.449,1.683Z" style="fill:#332c44"/><rect height="6.616" rx="2.732" ry="2.732" style="fill:#332c44" width="5.463" x="74.34" y="49.568"/><path d="M86.194,46.388a1.494,1.494,0,0,1-.916-.313c-4.176-3.228-10.13-1.521-13.29-.338a1.5,1.5,0,0,1-1.923-.834h0a1.5,1.5,0,0,1,.865-1.974C74.551,41.566,81.6,39.542,87,43.617a1.572,1.572,0,0,1,.531,1.955A1.5,1.5,0,0,1,86.194,46.388Z" style="fill:#332c44"/><path d="M74.211,51.977a3.581,3.581,0,0,1,1.546-1.06,5.725,5.725,0,0,1,2.119-.3,8.144,8.144,0,0,1,2.3.406l.551.208c.178.079.345.175.533.239a2.276,2.276,0,0,0,.585.17,2.583,2.583,0,0,0,.729.056l.243-.016a1.038,1.038,0,0,0,.963-1.106,1.444,1.444,0,0,0-.021-.149,2.589,2.589,0,0,0-.974-1.481,9.1,9.1,0,0,0-1.479-.812,9.717,9.717,0,0,0-3.268-.792,7.9,7.9,0,0,0-3.49.55,5.713,5.713,0,0,0-2.836,2.468,1.494,1.494,0,0,0,2.448,1.683Z" style="fill:#332c44"/><path d="M63.992,75.323a6.547,6.547,0,0,1-6.35-4.932A2.506,2.506,0,0,1,60.07,67.27h7.844a2.506,2.506,0,0,1,2.427,3.122A6.545,6.545,0,0,1,63.992,75.323ZM60.77,70.27a3.555,3.555,0,0,0,6.444,0Zm7.144,0h0Z" style="fill:#332c44"/><path d="M75.378,10.273c-16.811-7.363-26.039.811-27.041,11.15,4,9.642,20.406,23.483,42.9,29.288a2.009,2.009,0,0,0,2.512-2.083C92.528,31.8,91.563,17.362,75.378,10.273Z" style="fill:#3d60ac"/><path d="M81.978,95.63c-.078-.048-1.984-.939-2.064-.975A5.414,5.414,0,0,0,82.739,93.3a3.972,3.972,0,0,0,1.1-3.346c-.162-1.66.878-3,3.056-5.637A52.532,52.532,0,0,0,97.437,65.286,9.947,9.947,0,0,0,100.6,52.518c2.632-15.118-.4-28.823-8.574-38.644A36.46,36.46,0,0,0,64,.57C56.992.57,48.5,3.258,44.863,8.41a2.081,2.081,0,0,1-1.046.787C31.112,13.424,24.675,30.771,28.3,51.34c-2.057,2.195-2.612,5.5-1.406,9.208a9.507,9.507,0,0,0,3.671,4.738A52.532,52.532,0,0,0,41.105,84.315c2.178,2.636,3.218,3.977,3.056,5.637a3.979,3.979,0,0,0,1.1,3.348,5.4,5.4,0,0,0,2.824,1.355c-.079.036-1.985.926-2.066.977-11.788,5.751-17.284,13.817-18.28,15.408a6.3,6.3,0,0,0-1.083,4.97c.6,2.325,2.815,3.812,4.9,4.959,1.16.641,11.926,6.257,32.445,6.257s31.285-5.616,32.444-6.256c2.085-1.148,4.3-2.635,4.9-4.96a6.3,6.3,0,0,0-1.082-4.969C99.265,109.449,93.768,101.381,81.978,95.63Zm2.6-13.226c-2.246,2.718-4.019,4.864-3.728,7.839.062.637-.144.842-.232.929-.66.658-2.51.851-5.477.586a8.339,8.339,0,0,1-2.285-5.332,54.126,54.126,0,0,0,7.24-4.574c4.6-3.509,7.785-8.167,9.84-14.607a8.78,8.78,0,0,0,1.273.1,10.06,10.06,0,0,0,2.445-.316A48.488,48.488,0,0,1,84.582,82.4ZM57.964,87.791A16.566,16.566,0,0,0,64,89.431a16.566,16.566,0,0,0,6.036-1.64A10.848,10.848,0,0,0,73.39,94.2c.065.074.46.382.579.478a17.91,17.91,0,0,1-19.938,0c.121-.1.5-.392.553-.454A10.846,10.846,0,0,0,57.964,87.791ZM49.72,79.468C42.709,74.12,39.3,65.6,38.328,50.96c-.836-10.943,5.665-22.053,9.606-26.928,5.366,9.785,21.086,22.161,41.677,27.8-1.049,14.1-4.459,22.392-11.331,27.636C73.963,82.761,67.037,86.431,64,86.431S54.037,82.761,49.72,79.468ZM64,100.707A19.543,19.543,0,0,0,76.63,96.4c.551.288,1.811.876,2.606,1.245a24.309,24.309,0,0,1-5.3,6.106,3.523,3.523,0,0,1-4.665-.009c-.473-.418-.956-.863-1.417-1.32a5.479,5.479,0,0,0-7.7,0c-.461.458-.944.9-1.416,1.321a3.528,3.528,0,0,1-4.666.009,24.309,24.309,0,0,1-5.3-6.106c.795-.369,2.055-.957,2.6-1.246A19.543,19.543,0,0,0,64,100.707ZM98.254,59.622a7.069,7.069,0,0,1-3.685,3.894,7.461,7.461,0,0,1-3.8.8c.384-1.552.706-3.214.985-4.959A4.034,4.034,0,0,1,95.142,58.1a1.5,1.5,0,0,0,.4-2.973,7.769,7.769,0,0,0-3.251.363q.176-1.609.306-3.323a3.673,3.673,0,0,0,.549-.206,5.955,5.955,0,0,1,2.942.395C98.538,53.546,99.349,56.262,98.254,59.622Zm-52.407-47.9a1.5,1.5,0,0,0,.959-.757C49.233,6.338,57.454,3.57,64,3.57A33.467,33.467,0,0,1,89.719,15.793c7.241,8.7,10.133,20.752,8.254,34.174-.186-.109-.375-.216-.574-.313a7.65,7.65,0,0,0-2.188-.62,3.524,3.524,0,0,0,.026-.5C94.068,30.555,90.811,19.514,76.254,9.055A1.5,1.5,0,1,0,74.5,11.491c13.584,9.761,16.632,20.2,17.741,37.234a.5.5,0,0,1-.185.426.514.514,0,0,1-.464.1C70.78,43.88,55.042,31.475,50.254,22a2.493,2.493,0,0,0-4.129-.487c-3.9,4.568-10.843,15.858-10.865,27.468a9.381,9.381,0,0,0-4.233.5C28.062,30.419,34.132,14.711,45.847,11.726ZM29.745,59.62c-1.094-3.358-.283-6.074,2.169-7.269a5.9,5.9,0,0,1,3.492-.293q.132,1.771.314,3.431a7.792,7.792,0,0,0-3.26-.367,1.5,1.5,0,0,0,.4,2.973,4.026,4.026,0,0,1,3.392,1.275c.278,1.742.6,3.4.981,4.951a7.44,7.44,0,0,1-3.8-.8A7.072,7.072,0,0,1,29.745,59.62ZM47.378,91.174c-.088-.087-.294-.292-.232-.931.291-2.975-1.482-5.121-3.728-7.839a48.507,48.507,0,0,1-9.076-15.378,10.06,10.06,0,0,0,2.445.316,8.807,8.807,0,0,0,1.275-.1c2.056,6.438,5.24,11.1,9.838,14.607a54.146,54.146,0,0,0,7.237,4.572,8.4,8.4,0,0,1-2.29,5.334C49.886,92.02,48.037,91.83,47.378,91.174Zm51.061,24.084c-.248.959-1.31,1.91-3.444,3.085-1.091.6-11.228,5.883-31,5.883s-29.9-5.281-31-5.884c-2.132-1.174-3.194-2.125-3.442-3.084a3.466,3.466,0,0,1,.72-2.625c.884-1.412,5.6-8.354,15.784-13.677a26.354,26.354,0,0,0,6.014,7.037,6.53,6.53,0,0,0,8.641-.007c.514-.455,1.04-.941,1.542-1.439a2.47,2.47,0,0,1,3.476,0c.5.5,1.028.983,1.543,1.438a6.529,6.529,0,0,0,8.64.007,26.354,26.354,0,0,0,6.014-7.037c10.183,5.322,14.9,12.265,15.785,13.678A3.465,3.465,0,0,1,98.439,115.258Z" style="fill:#332c44"/><path d="M40.122,88.673c-2.917-2.2-5.957,3.4-8.8,5.711a2.146,2.146,0,0,1-1.928.093c-1.43-.594-3.5-6.839-5.555-10.446-2.421-4.251-5.431-6.741-7.325-4.253a2.466,2.466,0,0,0,0,2.567s-2.471-3.749-4.8-2.472a2.544,2.544,0,0,0-1.126,3.11,18.575,18.575,0,0,0,1,2.232C10.482,83.571,8.7,82.881,7.537,84c-.812.78-.734,1.956.081,4.006a72.707,72.707,0,0,0,3.912,7.822c-1.714-3.2-3.907-4.885-5.522-5.238a1.72,1.72,0,0,0-1.968.6c-1.285,2.086,3.445,7.377,5.714,11.261a60.283,60.283,0,0,1,5.325,11.462,29.077,29.077,0,0,1,1.139,5.167,5.975,5.975,0,0,0,6.34,5.168,31.642,31.642,0,0,0,4.3-.614,5.983,5.983,0,0,0,4.669-6.433c-.255-2.743-.357-5.5.029-6.666a82.851,82.851,0,0,1,4.465-10.384C38.321,95.432,42.906,90.769,40.122,88.673Z" style="fill:#ff9ea7"/><path d="M123.96,91.194a1.72,1.72,0,0,0-1.968-.6c-1.615.353-3.808,2.041-5.522,5.238a72.707,72.707,0,0,0,3.912-7.822c.815-2.05.893-3.226.081-4.006-1.166-1.119-2.945-.429-4.059,1.215a18.575,18.575,0,0,0,1-2.232,2.544,2.544,0,0,0-1.126-3.11c-2.325-1.277-4.8,2.472-4.8,2.472a2.466,2.466,0,0,0,0-2.567c-1.894-2.488-4.9,0-7.325,4.253-2.056,3.607-4.125,9.852-5.555,10.446a2.146,2.146,0,0,1-1.928-.093c-2.84-2.309-5.88-7.915-8.8-5.711-2.784,2.1,1.8,6.759,4.1,11.482a82.851,82.851,0,0,1,4.465,10.384c.386,1.167.284,3.923.029,6.666a5.983,5.983,0,0,0,4.669,6.433,31.642,31.642,0,0,0,4.3.614,5.975,5.975,0,0,0,6.34-5.168,29.077,29.077,0,0,1,1.139-5.167,60.283,60.283,0,0,1,5.325-11.462C120.515,98.571,125.245,93.28,123.96,91.194Z" style="fill:#ff9ea7"/><path d="M41.026,87.477c-3.187-2.407-6.167.936-8.343,3.379-.786.882-1.392,1.941-2.226,2.3a.559.559,0,0,1-.413-.039c-.689-.391-1.734-3.14-2.508-4.871s-1.57-3.516-2.391-4.956c-1.5-2.633-3.864-5.81-6.613-5.993a3.7,3.7,0,0,0-3.21,1.574c-.023.03-.039.062-.06.092a3.88,3.88,0,0,0-6.318,3.012,3.4,3.4,0,0,0-2.445.944c-1.824,1.749-.778,4.379-.275,5.642.077.2.162.4.247.6a4.605,4.605,0,0,0-.958-.135,3.064,3.064,0,0,0-2.75,1.386c-1.437,2.333.825,5.6,3.445,9.39.844,1.219,1.641,2.371,2.25,3.415a59.1,59.1,0,0,1,5.2,11.178,27.569,27.569,0,0,1,1.076,4.892,7.478,7.478,0,0,0,7.4,6.486c.178,0,.358-.007.539-.019a33.382,33.382,0,0,0,4.5-.643,7.477,7.477,0,0,0,5.851-8.039c-.331-3.555-.423-6.108.327-7.9,1.274-3.043,2.028-4.267,4.021-8.356a42.687,42.687,0,0,1,2.242-3.853C41.718,93.6,44.11,89.8,41.026,87.477Zm-3.958,7.885a44.787,44.787,0,0,0-2.4,4.136c-2.049,4.2-2.921,5.387-4.013,8.679a23.944,23.944,0,0,0-.626,9.167,4.477,4.477,0,0,1-3.487,4.827,30.31,30.31,0,0,1-4.093.586,4.476,4.476,0,0,1-4.745-3.87,30.582,30.582,0,0,0-1.2-5.443A62.1,62.1,0,0,0,11.049,101.7c-.668-1.143-1.535-2.4-2.374-3.608-1.236-1.787-4.06-5.351-3.359-6.072.434-.446,3.354,1.522,5.294,5.14a1.5,1.5,0,1,0,2.643-1.418c-.309-.577-3.453-6.3-4.242-8.289-.517-1.3-.672-2.142-.436-2.368a.6.6,0,0,1,.433-.163,2.1,2.1,0,0,1,1.32,1.105c.643,1.064,1.266,2.323,2.019,3.645,1.012,1.776,2.059,3.612,2.962,5.439A1.5,1.5,0,1,0,18,93.781c-.942-1.907-2.011-3.783-3.045-5.6a43.605,43.605,0,0,1-2.944-5.7,1.018,1.018,0,0,1,.432-1.3c1.088-.5,2.247.972,2.767,1.908.637,1.145,1.251,2.583,2.029,4.046.953,1.8,2.034,3.829,2.859,5.81A1.5,1.5,0,0,0,22.865,91.8c-.878-2.112-1.994-4.212-2.979-6.065-.781-1.469-1.517-2.855-1.989-3.975a1.572,1.572,0,0,1-.2-1.01.693.693,0,0,1,.845-.463c.819.126,2.291,1.485,4,4.488.749,1.314,1.517,3.032,2.259,4.694.7,1.558,1.263,2.8,1.789,3.781a9.645,9.645,0,0,0-6.941,6.006,1.5,1.5,0,0,0,2.75,1.2c1.311-3.01,3.483-4.972,6.7-4.5a4.057,4.057,0,0,0,3.179-.408,24.675,24.675,0,0,0,2.651-2.7c2.248-2.52,3.462-3.606,4.3-2.979C40.1,90.536,38.49,93.1,37.068,95.362Z" style="fill:#332c44"/><path d="M88.393,96.959a42.687,42.687,0,0,1,2.242,3.853c1.993,4.089,2.747,5.313,4.021,8.356.75,1.791.658,4.344.327,7.9a7.477,7.477,0,0,0,5.851,8.039,33.382,33.382,0,0,0,4.5.643c.181.012.361.019.539.019a7.478,7.478,0,0,0,7.4-6.486,27.569,27.569,0,0,1,1.076-4.892,59.1,59.1,0,0,1,5.2-11.178c.609-1.044,1.406-2.2,2.25-3.415,2.62-3.787,4.882-7.057,3.445-9.39a3.064,3.064,0,0,0-2.75-1.386,4.605,4.605,0,0,0-.958.135c.085-.2.17-.4.247-.6.5-1.263,1.549-3.893-.275-5.642a3.4,3.4,0,0,0-2.445-.944,3.88,3.88,0,0,0-6.318-3.012c-.021-.03-.037-.062-.06-.092a3.7,3.7,0,0,0-3.21-1.574c-2.749.183-5.114,3.36-6.613,5.993-.821,1.44-1.619,3.227-2.391,4.956s-1.819,4.48-2.508,4.871a.559.559,0,0,1-.413.039c-.834-.358-1.44-1.417-2.226-2.3-2.176-2.443-5.156-5.786-8.343-3.379C83.89,89.8,86.282,93.6,88.393,96.959Zm.387-7.087c.836-.627,2.05.459,4.3,2.979a24.675,24.675,0,0,0,2.651,2.7,4.057,4.057,0,0,0,3.179.408c3.214-.476,5.386,1.486,6.7,4.5a1.5,1.5,0,0,0,2.75-1.2,9.645,9.645,0,0,0-6.941-6.006c.526-.981,1.094-2.223,1.789-3.781.742-1.662,1.51-3.38,2.259-4.694,1.71-3,3.182-4.362,4-4.488a.693.693,0,0,1,.845.463,1.572,1.572,0,0,1-.205,1.01c-.472,1.12-1.208,2.506-1.989,3.975-.985,1.853-2.1,3.953-2.979,6.065a1.5,1.5,0,0,0,2.769,1.152c.825-1.981,1.906-4.015,2.859-5.81.778-1.463,1.392-2.9,2.029-4.046.52-.936,1.679-2.411,2.767-1.908a1.018,1.018,0,0,1,.432,1.3,43.731,43.731,0,0,1-2.944,5.7c-1.034,1.814-2.1,3.69-3.045,5.6a1.5,1.5,0,1,0,2.689,1.328c.9-1.827,1.95-3.663,2.962-5.439.753-1.322,1.376-2.581,2.019-3.645a2.1,2.1,0,0,1,1.32-1.105.6.6,0,0,1,.433.163c.236.226.081,1.067-.436,2.368-.789,1.984-3.933,7.712-4.242,8.289a1.5,1.5,0,1,0,2.643,1.418c1.94-3.618,4.86-5.586,5.294-5.14.7.721-2.123,4.285-3.359,6.072-.839,1.212-1.706,2.465-2.374,3.608a62.1,62.1,0,0,0-5.453,11.746,30.582,30.582,0,0,0-1.2,5.443,4.476,4.476,0,0,1-4.745,3.87,30.31,30.31,0,0,1-4.093-.586,4.477,4.477,0,0,1-3.487-4.827,23.944,23.944,0,0,0-.626-9.167c-1.092-3.292-1.964-4.477-4.013-8.679a44.787,44.787,0,0,0-2.4-4.136C89.51,93.1,87.9,90.536,88.78,89.872Z" style="fill:#332c44"/></svg>